<?xml version="1.0" encoding="UTF-8"?>
<svg width="256px" height="256px" viewBox="0 0 256 256" version="1.1" xmlns="http://www.w3.org/2000/svg">
    <g stroke="none" stroke-width="1" fill="none" fill-rule="evenodd">
        <path d="M126.916,0.072 C56.346,0.072 0.061,56.346 0.061,126.916 C0.061,197.485 56.346,253.77 126.916,253.77 C197.485,253.77 253.77,197.485 253.77,126.916 C253.77,56.346 197.485,0.072 126.916,0.072 Z M126.916,232.354 C71.326,232.354 26.332,187.36 26.332,131.77 C26.332,76.18 71.326,31.186 126.916,31.186 C182.505,31.186 227.499,76.18 227.499,131.77 C227.499,187.36 182.505,232.354 126.916,232.354 Z" fill="#000000"></path>
        <path d="M110.134,82.6 L143.566,82.6 C143.566,82.6 143.566,65.464 126.43,65.464 C109.294,65.464 110.134,82.6 110.134,82.6 Z M110.134,99.736 L143.566,99.736 C143.566,99.736 143.566,116.872 126.43,116.872 C109.294,116.872 110.134,99.736 110.134,99.736 Z" fill="#000000"></path>
    </g>
</svg> 